<svg id="visual" viewBox="0 0 900 600" width="900" height="600" xmlns="http://www.w3.org/2000/svg" xmlns:xlink="http://www.w3.org/1999/xlink" version="1.1"><rect x="0" y="0" width="900" height="600" fill="#203A43"></rect><g transform="translate(438.92194476216355 284.75502329083696)"><path d="M170.1 -182.9C211.6 -167.9 230.4 -105.9 239.1 -44C247.8 17.9 246.4 79.7 218.3 123.7C190.1 167.6 135.1 193.8 80.6 207.6C26.1 221.5 -27.8 223 -57.4 195.7C-87 168.5 -92.2 112.4 -122.7 67.1C-153.3 21.9 -209.1 -12.4 -219.7 -53.8C-230.4 -95.2 -195.9 -143.8 -151.7 -158.3C-107.6 -172.9 -53.8 -153.4 5.2 -159.7C64.3 -165.9 128.6 -197.9 170.1 -182.9" fill="#2C5162"></path></g></svg>