<svg id="visual" viewBox="0 0 900 600" width="900" height="600" xmlns="http://www.w3.org/2000/svg" xmlns:xlink="http://www.w3.org/1999/xlink" version="1.1"><rect x="0" y="0" width="900" height="600" fill="#203A43"></rect><g transform="translate(441.67958971759094 273.5815388600114)"><path d="M130.7 -211C171.7 -202.6 208.8 -172.3 231.2 -133.5C253.6 -94.7 261.3 -47.3 236.6 -14.3C211.8 18.8 154.6 37.5 131.8 75.6C109 113.7 120.5 171.2 104.2 209.1C88 247.1 44 265.5 -0.4 266.3C-44.8 267 -89.7 250 -121.6 221.1C-153.5 192.1 -172.4 151.3 -186.5 112.5C-200.6 73.7 -209.8 36.8 -221.2 -6.6C-232.6 -50 -246.2 -100 -221 -119.6C-195.9 -139.3 -131.9 -128.5 -88.6 -135.5C-45.3 -142.5 -22.7 -167.3 11.1 -186.5C44.8 -205.7 89.7 -219.3 130.7 -211" fill="#2C5162"></path></g></svg>