<svg id="visual" viewBox="0 0 900 600" width="900" height="600" xmlns="http://www.w3.org/2000/svg" xmlns:xlink="http://www.w3.org/1999/xlink" version="1.1"><rect x="0" y="0" width="900" height="600" fill="#203A43"></rect><g transform="translate(438.40728453280144 276.5340981141881)"><path d="M125.1 -125.2C174.3 -107.8 234.9 -79.9 236.6 -45.4C238.2 -10.9 181 30.3 140.3 62.3C99.5 94.3 75.3 117.2 39.8 146C4.3 174.8 -42.3 209.6 -67 195.6C-91.8 181.6 -94.6 118.9 -123.9 70.4C-153.3 21.9 -209.1 -12.4 -213.2 -46C-217.3 -79.7 -169.7 -112.6 -125.6 -131C-81.4 -149.4 -40.7 -153.2 -1.4 -151.5C37.9 -149.9 75.8 -142.7 125.1 -125.2" fill="#2C5162"></path></g></svg>