<svg id="visual" viewBox="0 0 900 600" width="900" height="600" xmlns="http://www.w3.org/2000/svg" xmlns:xlink="http://www.w3.org/1999/xlink" version="1.1"><rect x="0" y="0" width="900" height="600" fill="#0F2027"></rect><path d="M0 308L21.5 317.8C43 327.7 86 347.3 128.8 352.7C171.7 358 214.3 349 257.2 351.5C300 354 343 368 385.8 362.2C428.7 356.3 471.3 330.7 514.2 322.8C557 315 600 325 642.8 332C685.7 339 728.3 343 771.2 351.2C814 359.3 857 371.7 878.5 377.8L900 384L900 601L878.5 601C857 601 814 601 771.2 601C728.3 601 685.7 601 642.8 601C600 601 557 601 514.2 601C471.3 601 428.7 601 385.8 601C343 601 300 601 257.2 601C214.3 601 171.7 601 128.8 601C86 601 43 601 21.5 601L0 601Z" fill="#2c5364"></path><path d="M0 390L21.5 386.5C43 383 86 376 128.8 383.2C171.7 390.3 214.3 411.7 257.2 423.2C300 434.7 343 436.3 385.8 439.7C428.7 443 471.3 448 514.2 449.7C557 451.3 600 449.7 642.8 440C685.7 430.3 728.3 412.7 771.2 398.5C814 384.3 857 373.7 878.5 368.3L900 363L900 601L878.5 601C857 601 814 601 771.2 601C728.3 601 685.7 601 642.8 601C600 601 557 601 514.2 601C471.3 601 428.7 601 385.8 601C343 601 300 601 257.2 601C214.3 601 171.7 601 128.8 601C86 601 43 601 21.5 601L0 601Z" fill="#294c5b"></path><path d="M0 481L21.5 473.2C43 465.3 86 449.7 128.8 441.2C171.7 432.7 214.3 431.3 257.2 427.2C300 423 343 416 385.8 414.8C428.7 413.7 471.3 418.3 514.2 427.8C557 437.3 600 451.7 642.8 454C685.7 456.3 728.3 446.7 771.2 449.2C814 451.7 857 466.3 878.5 473.7L900 481L900 601L878.5 601C857 601 814 601 771.2 601C728.3 601 685.7 601 642.8 601C600 601 557 601 514.2 601C471.3 601 428.7 601 385.8 601C343 601 300 601 257.2 601C214.3 601 171.7 601 128.8 601C86 601 43 601 21.5 601L0 601Z" fill="#264653"></path><path d="M0 464L21.5 473.2C43 482.3 86 500.7 128.8 511.7C171.7 522.7 214.3 526.3 257.2 520C300 513.7 343 497.3 385.8 493.5C428.7 489.7 471.3 498.3 514.2 504.3C557 510.3 600 513.7 642.8 510.2C685.7 506.7 728.3 496.3 771.2 489C814 481.7 857 477.3 878.5 475.2L900 473L900 601L878.5 601C857 601 814 601 771.2 601C728.3 601 685.7 601 642.8 601C600 601 557 601 514.2 601C471.3 601 428.7 601 385.8 601C343 601 300 601 257.2 601C214.3 601 171.7 601 128.8 601C86 601 43 601 21.5 601L0 601Z" fill="#23404b"></path><path d="M0 566L21.5 557.8C43 549.7 86 533.3 128.8 527.2C171.7 521 214.3 525 257.2 527.7C300 530.3 343 531.7 385.8 534C428.7 536.3 471.3 539.7 514.2 539.7C557 539.7 600 536.3 642.8 540C685.7 543.7 728.3 554.3 771.2 552.3C814 550.3 857 535.7 878.5 528.3L900 521L900 601L878.5 601C857 601 814 601 771.2 601C728.3 601 685.7 601 642.8 601C600 601 557 601 514.2 601C471.3 601 428.7 601 385.8 601C343 601 300 601 257.2 601C214.3 601 171.7 601 128.8 601C86 601 43 601 21.5 601L0 601Z" fill="#203a43"></path></svg>